<?xml version="1.0" encoding="utf-8"?>
<!-- Generator: Adobe Illustrator 27.5.0, SVG Export Plug-In . SVG Version: 6.00 Build 0)  -->
<svg version="1.1" id="Layer_1" xmlns="http://www.w3.org/2000/svg" xmlns:xlink="http://www.w3.org/1999/xlink" x="0px" y="0px"
	 viewBox="0 0 500 500" style="enable-background:new 0 0 500 500;" xml:space="preserve">
<style type="text/css">
	.st0{fill:#6F0E10;}
	.st1{fill:#FFFFFF;}
	.st2{fill:none;}
</style>
<g>
	<path class="st0" d="M265.44,155.25c-8.91-7.54-21.97-7.54-30.88,0L78.74,287.06V411.4c0,16.28,13.19,29.47,29.47,29.47h72.24
		V309.27c0-16.28,13.19-29.47,29.47-29.47h80.15c16.28,0,29.47,13.19,29.47,29.47v131.59h72.24c16.28,0,29.47-13.19,29.47-29.47
		V287.06h0L265.44,155.25z"/>
	<path class="st0" d="M468.93,249.75L265.75,71.79c-9.02-7.9-22.49-7.9-31.5,0L31.07,249.75c-9.2,8.05-8.95,22.44,0.52,30.17v0
		c7.37,6.02,17.99,5.94,25.26-0.21l177.73-150.13c8.91-7.52,21.94-7.52,30.85,0l177.73,150.13c7.27,6.14,17.89,6.23,25.26,0.21v0
		C477.88,272.19,478.13,257.8,468.93,249.75z"/>
</g>
<path class="st0" d="M279.91,297.34h-59.82c-11.59,0-20.99,9.4-20.99,20.99v122.54h101.8V318.33
	C300.9,306.74,291.5,297.34,279.91,297.34z"/>
</svg>
